<?xml version="1.0" encoding="UTF-8"?>
<svg id="Layer_2" data-name="Layer 2" xmlns="http://www.w3.org/2000/svg" viewBox="0 0 102.03 27.53">
  <defs>
    <style>
      .cls-1 {
        fill: #009ca7;
      }
    </style>
  </defs>
  <g id="Layer_1-2" data-name="Layer 1">
    <g>
      <polygon class="cls-1" points=".33 .37 .33 15.35 9.74 15.35 9.74 12.31 3.63 12.31 3.63 .37 .33 .37"/>
      <polygon class="cls-1" points="27.79 .37 31.29 .37 35 11.4 35.04 11.4 38.74 .37 42.02 .37 36.76 15.35 33.02 15.35 27.79 .37"/>
      <path class="cls-1" d="M77.64.37h3.81l5.68,14.98h-3.55l-1.17-3.19h-6.03l-1.18,3.19h-3.32L77.64.37ZM79.4,3.92l-2.05,5.45h4.1l-2.05-5.45h0Z"/>
      <g>
        <path class="cls-1" d="M18.78.16c-4.6,0-7.78,3.24-7.78,7.71s3.18,7.71,7.78,7.71,7.78-3.24,7.78-7.71S23.37.16,18.78.16M18.78,12.41c-2.79,0-4.4-1.99-4.4-4.54s1.62-4.54,4.4-4.54,4.4,1.99,4.4,4.54-1.63,4.54-4.4,4.54"/>
        <polygon class="cls-1" points="48.29 12.31 48.29 3.42 55.36 3.42 55.36 .37 44.99 .37 44.99 15.35 55.55 15.35 55.55 12.31 48.29 12.31"/>
        <rect class="cls-1" x="50.99" y="5.97" width="3.08" height="3.7"/>
        <path class="cls-1" d="M68.25,4.04c-.26-.18-1.38-1.02-3.46-1.02-1.41,0-2.38.48-2.38,1.47s.78,1.29,1.96,1.56c.29.07,1.38.33,1.72.42,2.66.64,4.12,2.05,4.12,4.55,0,2.9-2.41,4.74-5.8,4.74s-5.25-1.41-5.72-1.77l1.55-2.63c.22.18,1.63,1.39,3.95,1.39,1.92,0,2.7-.7,2.7-1.57s-.82-1.38-2.11-1.69c-.37-.09-1.45-.35-1.79-.43-2.51-.61-3.9-1.94-3.9-4.34s1.52-4.69,5.43-4.69c3.21,0,4.75,1.04,5.3,1.42l-1.58,2.62h0Z"/>
        <path class="cls-1" d="M99.59,10.88c-.75.95-1.92,1.53-3.43,1.53-2.79,0-4.4-1.99-4.4-4.54s1.62-4.54,4.4-4.54c1.49,0,2.66.58,3.41,1.51l2.42-2.27c-1.38-1.51-3.41-2.41-5.83-2.41-4.6,0-7.78,3.24-7.78,7.71s3.18,7.71,7.78,7.71c2.44,0,4.48-.92,5.86-2.45l-2.43-2.26h0Z"/>
      </g>
    </g>
    <g>
      <path class="cls-1" d="M0,27.44v-5.03h2.52c1.13,0,1.75.76,1.75,1.67s-.62,1.65-1.75,1.65h-1.22v1.7H0ZM2.34,23.51h-1.05v1.13h1.05c.35,0,.6-.22.6-.56s-.26-.57-.6-.57Z"/>
      <path class="cls-1" d="M4.85,27.44v-5.03h1.3v5.03h-1.3Z"/>
      <path class="cls-1" d="M10.24,27.44l-1.09-1.69-1.09,1.69h-1.54l1.76-2.58-1.64-2.45h1.53l.99,1.58.97-1.58h1.54l-1.64,2.44,1.75,2.59h-1.53Z"/>
      <path class="cls-1" d="M12.14,27.44v-5.03h3.69v1.09h-2.39v.84h2.34v1.1h-2.34v.9h2.39v1.09h-3.69Z"/>
      <path class="cls-1" d="M16.58,27.44v-5.03h1.3v3.9h2.02v1.13h-3.32Z"/>
      <path class="cls-1" d="M22.5,22.41h1.32v2.95c0,.59.32,1.02,1.02,1.02s1.01-.43,1.01-1.02v-2.95h1.32v2.98c0,1.25-.72,2.13-2.33,2.13s-2.34-.89-2.34-2.13v-2.99Z"/>
      <path class="cls-1" d="M31.26,27.44l-1.09-1.69-1.09,1.69h-1.54l1.76-2.58-1.64-2.45h1.53l.99,1.58.97-1.58h1.54l-1.64,2.44,1.75,2.59h-1.53Z"/>
      <path class="cls-1" d="M38.86,27.44l-.44-1.12h-2.55l-.44,1.12h-.69l2.02-5.03h.78l2.03,5.03h-.69ZM37.14,22.97l-1.09,2.8h2.18l-1.09-2.8Z"/>
      <path class="cls-1" d="M40.21,27.44v-5.03h.63v4.47h2.34v.56h-2.96Z"/>
      <path class="cls-1" d="M44.06,27.44v-5.03h2.02c1.01,0,1.58.69,1.58,1.51s-.58,1.52-1.58,1.52h-1.39v2h-.63ZM46,22.97h-1.32v1.91h1.32c.59,0,1-.39,1-.96s-.41-.96-1-.96Z"/>
      <path class="cls-1" d="M52.05,27.44v-2.31h-2.94v2.31h-.63v-5.03h.63v2.16h2.94v-2.16h.63v5.03h-.63Z"/>
      <path class="cls-1" d="M57.46,27.44l-.44-1.12h-2.55l-.44,1.12h-.69l2.02-5.03h.78l2.03,5.03h-.69ZM55.74,22.97l-1.09,2.8h2.18l-1.09-2.8Z"/>
      <path class="cls-1" d="M60.75,27.44v-5.03h2.02c1.01,0,1.58.69,1.58,1.51s-.58,1.52-1.58,1.52h-1.39v2h-.63ZM62.7,22.97h-1.32v1.91h1.32c.59,0,1-.39,1-.96s-.41-.96-1-.96Z"/>
      <path class="cls-1" d="M68.09,27.44l-1.28-2h-1v2h-.63v-5.03h2.02c.92,0,1.58.59,1.58,1.51s-.62,1.4-1.3,1.46l1.36,2.05h-.74ZM67.12,22.97h-1.32v1.92h1.32c.59,0,1-.4,1-.96s-.41-.96-1-.96Z"/>
      <path class="cls-1" d="M72.05,22.33c1.48,0,2.49,1.12,2.49,2.6s-1.01,2.6-2.49,2.6-2.5-1.12-2.5-2.6,1-2.6,2.5-2.6ZM72.05,22.89c-1.13,0-1.85.87-1.85,2.04s.72,2.04,1.85,2.04,1.85-.87,1.85-2.04-.72-2.04-1.85-2.04Z"/>
      <path class="cls-1" d="M76.57,27.44v-4.47h-1.59v-.56h3.81v.56h-1.6v4.47h-.62Z"/>
      <path class="cls-1" d="M81.71,22.33c1.48,0,2.49,1.12,2.49,2.6s-1.01,2.6-2.49,2.6-2.5-1.12-2.5-2.6,1-2.6,2.5-2.6ZM81.71,22.89c-1.13,0-1.85.87-1.85,2.04s.72,2.04,1.85,2.04,1.85-.87,1.85-2.04-.72-2.04-1.85-2.04Z"/>
      <path class="cls-1" d="M86.23,27.44v-4.47h-1.59v-.56h3.81v.56h-1.6v4.47h-.62Z"/>
      <path class="cls-1" d="M90.74,27.44v-2.13l-1.98-2.9h.73l1.56,2.34,1.56-2.34h.73l-1.97,2.9v2.13h-.62Z"/>
      <path class="cls-1" d="M94,27.44v-5.03h2.02c1.01,0,1.58.69,1.58,1.51s-.58,1.52-1.58,1.52h-1.39v2h-.63ZM95.95,22.97h-1.32v1.91h1.32c.59,0,1-.39,1-.96s-.41-.96-1-.96Z"/>
      <path class="cls-1" d="M98.43,27.44v-5.03h3.29v.56h-2.67v1.62h2.62v.56h-2.62v1.73h2.67v.56h-3.29Z"/>
    </g>
  </g>
</svg>