<?xml version="1.0" encoding="UTF-8"?>
<svg id="Layer_2" data-name="Layer 2" xmlns="http://www.w3.org/2000/svg" viewBox="0 0 101.7 15.74">
  <defs>
    <style>
      .cls-1 {
        fill: #009ca7;
      }
    </style>
  </defs>
  <g id="Layer_1-2" data-name="Layer 1">
    <g>
      <polygon class="cls-1" points="0 .37 0 15.35 9.41 15.35 9.41 12.31 3.3 12.31 3.3 .37 0 .37"/>
      <polygon class="cls-1" points="27.47 .37 30.96 .37 34.67 11.4 34.71 11.4 38.42 .37 41.7 .37 36.44 15.35 32.69 15.35 27.47 .37"/>
      <path class="cls-1" d="M77.31.37h3.81l5.68,14.98h-3.55l-1.17-3.19h-6.03l-1.18,3.19h-3.32L77.31.37ZM79.07,3.92l-2.05,5.45h4.1l-2.05-5.45h0Z"/>
      <g>
        <path class="cls-1" d="M18.46.16c-4.6,0-7.78,3.24-7.78,7.71s3.18,7.71,7.78,7.71,7.78-3.24,7.78-7.71S23.04.16,18.46.16M18.46,12.41c-2.79,0-4.4-1.99-4.4-4.54s1.62-4.54,4.4-4.54,4.4,1.99,4.4,4.54-1.63,4.54-4.4,4.54"/>
        <polygon class="cls-1" points="47.97 12.31 47.97 3.42 55.04 3.42 55.04 .37 44.67 .37 44.67 15.35 55.22 15.35 55.22 12.31 47.97 12.31"/>
        <rect class="cls-1" x="50.66" y="5.97" width="3.08" height="3.7"/>
        <path class="cls-1" d="M67.93,4.04c-.26-.18-1.38-1.02-3.46-1.02-1.41,0-2.38.48-2.38,1.47s.78,1.29,1.96,1.56c.29.07,1.38.33,1.72.42,2.66.64,4.12,2.05,4.12,4.55,0,2.9-2.41,4.74-5.8,4.74s-5.25-1.41-5.72-1.77l1.55-2.63c.22.18,1.63,1.39,3.95,1.39,1.92,0,2.7-.7,2.7-1.57s-.82-1.38-2.11-1.69c-.37-.09-1.45-.35-1.79-.43-2.51-.61-3.9-1.94-3.9-4.34s1.52-4.69,5.43-4.69c3.21,0,4.75,1.04,5.3,1.42l-1.58,2.62h0Z"/>
        <path class="cls-1" d="M99.27,10.88c-.75.95-1.92,1.53-3.43,1.53-2.79,0-4.4-1.99-4.4-4.54s1.62-4.54,4.4-4.54c1.49,0,2.66.58,3.41,1.51l2.42-2.27c-1.38-1.51-3.41-2.41-5.83-2.41-4.6,0-7.78,3.24-7.78,7.71s3.18,7.71,7.78,7.71c2.44,0,4.48-.92,5.86-2.45l-2.43-2.26h0Z"/>
      </g>
    </g>
  </g>
</svg>